<?xml version="1.0" standalone="no"?>
<svg viewBox="0 0 200 200" xmlns="http://www.w3.org/2000/svg">
  <path fill="#00008B" d="M33.9,-53.5C45,-52.3,55.8,-45.3,57,-35.5C58.3,-25.6,50,-12.8,45.2,-2.7C40.5,7.4,39.4,14.7,39.3,26.6C39.2,38.5,40.2,54.8,33.8,63.1C27.4,71.3,13.7,71.4,4.3,63.9C-5,56.3,-10,41.2,-19.8,34.9C-29.6,28.7,-44.3,31.3,-57.9,27C-71.5,22.7,-84.1,11.3,-86.7,-1.5C-89.3,-14.3,-81.9,-28.6,-69,-34.3C-56.1,-39.9,-37.8,-36.9,-25.4,-37.3C-13,-37.8,-6.5,-41.7,2.4,-45.9C11.4,-50.2,22.8,-54.7,33.9,-53.5Z" transform="translate(100 100)" />
</svg>
