<?xml version="1.0" standalone="no"?>
<svg viewBox="0 0 200 200" xmlns="http://www.w3.org/2000/svg">
  <path fill="#ADFF2F" d="M35.2,-55.8C47.9,-53.6,62.1,-48.8,70.5,-39.1C78.9,-29.4,81.4,-14.7,83,0.9C84.6,16.5,85.2,33,76.3,41.8C67.3,50.6,48.9,51.6,34.5,59.7C20.2,67.8,10.1,83,-2.1,86.6C-14.3,90.2,-28.6,82.2,-40.4,72.7C-52.2,63.1,-61.5,52,-64,39.6C-66.4,27.3,-62,13.6,-59.3,1.6C-56.6,-10.5,-55.6,-21,-50.3,-28.4C-45,-35.8,-35.3,-40.2,-26.2,-44.4C-17.1,-48.7,-8.6,-53,1.3,-55.3C11.2,-57.7,22.5,-58,35.2,-55.8Z" transform="translate(100 100)" />
</svg>
