<?xml version="1.0" standalone="no"?>
<svg xmlns:xlink="http://www.w3.org/1999/xlink" id="wave" style="transform:rotate(180deg); transition: 0.3s" viewBox="0 0 1440 490" version="1.1" xmlns="http://www.w3.org/2000/svg"><defs><linearGradient id="sw-gradient-0" x1="0" x2="0" y1="1" y2="0"><stop stop-color="rgba(243, 106, 62, 1)" offset="0%"/><stop stop-color="rgba(255, 179, 11, 1)" offset="100%"/></linearGradient></defs><path style="transform:translate(0, 0px); opacity:1" fill="url(#sw-gradient-0)" d="M0,294L26.7,302.2C53.3,310,107,327,160,310.3C213.3,294,267,245,320,204.2C373.3,163,427,131,480,114.3C533.3,98,587,98,640,114.3C693.3,131,747,163,800,163.3C853.3,163,907,131,960,163.3C1013.3,196,1067,294,1120,310.3C1173.3,327,1227,261,1280,253.2C1333.3,245,1387,294,1440,269.5C1493.3,245,1547,147,1600,138.8C1653.3,131,1707,212,1760,269.5C1813.3,327,1867,359,1920,375.7C1973.3,392,2027,392,2080,400.2C2133.3,408,2187,425,2240,424.7C2293.3,425,2347,408,2400,334.8C2453.3,261,2507,131,2560,98C2613.3,65,2667,131,2720,171.5C2773.3,212,2827,229,2880,220.5C2933.3,212,2987,180,3040,212.3C3093.3,245,3147,343,3200,318.5C3253.3,294,3307,147,3360,106.2C3413.3,65,3467,131,3520,163.3C3573.3,196,3627,196,3680,187.8C3733.3,180,3787,163,3813,155.2L3840,147L3840,490L3813.3,490C3786.7,490,3733,490,3680,490C3626.7,490,3573,490,3520,490C3466.7,490,3413,490,3360,490C3306.7,490,3253,490,3200,490C3146.7,490,3093,490,3040,490C2986.7,490,2933,490,2880,490C2826.7,490,2773,490,2720,490C2666.7,490,2613,490,2560,490C2506.7,490,2453,490,2400,490C2346.7,490,2293,490,2240,490C2186.7,490,2133,490,2080,490C2026.7,490,1973,490,1920,490C1866.7,490,1813,490,1760,490C1706.7,490,1653,490,1600,490C1546.7,490,1493,490,1440,490C1386.7,490,1333,490,1280,490C1226.7,490,1173,490,1120,490C1066.7,490,1013,490,960,490C906.7,490,853,490,800,490C746.7,490,693,490,640,490C586.7,490,533,490,480,490C426.7,490,373,490,320,490C266.7,490,213,490,160,490C106.7,490,53,490,27,490L0,490Z"/></svg>